<svg width="538" height="800" viewBox="0 0 538 800" fill="none" xmlns="http://www.w3.org/2000/svg">
<path d="M209.905 636.011C209.905 622.372 211.203 609.13
214.355 596.452L78.5878 545.948V562.403C78.5878 588.302
69.0571 612.796 51.0241 631.378L34.31 648.806C26.6231 
656.727 14.0735 656.914 6.15215 649.227C-1.76925 641.54
-1.90514 628.889 5.78179 620.97L22.3173 603.542C33.0737
592.461 38.6184 577.849 38.6184 562.406L38.6184 517.166C38.6184
510.617 42.2314 504.484 47.6109 500.751C52.9931 497.018 60.0619
496.155 66.1955 498.446L117.811 517.667C117.808 517.545 118.187
517.419 118.187 517.297C118.187 517.254 118.552 517.212 118.552
517.166L118.552 261.451L60.3683 226.918L47.3258 264.428C44.1525
273.665 35.2026 279.253 25.568 277.646C15.936 276.037 9.31218 267.705
9.31218 257.937L9.31218 148.135C9.31218 132.748 21.3182 120.225 36.7054
120.225C60.5282 120.225 79.6562 139.585 79.6562 163.378C79.6562 168.148
78.7317 172.877 77.1676 177.439L73.3495 188.371L131.957 223.398L212.649
196.495C210.867 187.67 209.745 178.606 209.449 169.336C207.949 122.471
225.804 78.5984 259.267 46.1881C291.437 15.0301 333.85 -1.3456 378.692
0.0852039C464.853 2.83491 534.499 72.4835 537.248 158.644C537.304 160.437
537.333 162.214 537.333 163.994C537.333 208.786 519.439 250.623 487.258 
281.794C461.218 307.011 427.628 322.537 392.99 326.784V358.893C398.319 365.815
402.672 374.776 402.672 384.575C402.672 406.413 384.991 424.18 363.151 
424.18C356.061 424.18 349.458 422.283 343.692 419.005L153.704 531.024L229.078 
559.142C256.679 507.358 311.226 472.02 373.886 472.02C464.312 472.02 537.88
545.585 537.88 636.011C537.88 726.437 464.314 800 373.891 800C283.468 800 209.905 
726.437 209.905 636.011ZM158.521 482.209L323.959 384.674C323.959 384.639 323.794 
384.607 323.794 384.575C323.794 384.461 324.05 384.352 324.053 384.237L158.524 285.304L158.521
482.209ZM177.194 250.437L343.759 350.028C346.692 348.382 350.361 347.127 353.026 346.266V326.746C297.072 
319.843 248.79 283.945 225.13 234.402L177.194 250.437ZM353.026 198.36C350.361 197.02 348.96 195.48 347.076
193.756L276.133 217.376C291.919 245.939 321.052 266.834 353.026 272.887V198.36ZM450.185 243.517C472.782
221.629 484.929 192.064 483.903 160.346C482.049 102.203 435.093 55.2046 376.95 53.3502C346.658 52.383
318.034 63.4324 296.318 84.4682C274.592 105.512 262.634 133.752 262.634 163.989C262.634 165.201 262.661 
166.413 262.698 167.636C262.826 171.638 263.191 175.579 263.735 179.464L335.408 155.574C339.504 138.072
355.205 124.984 373.939 124.984C395.777 124.984 413.375 142.75 413.375 164.585C413.375 179.378 406.315 
192.282 392.992 199.082V272.885C414.308 269.018 434.222 258.976 450.185 243.517ZM484.599 636.011C484.599 
574.972 434.936 525.309 373.896 525.309C334.111 525.309 299.175 546.414 279.658 578.009L380.334 615.572C388.372
618.57 393.336 626.193 393.336 634.295C393.336 636.616 392.931 638.977 392.068 641.279C388.212 651.62 376.699
656.874 366.361 653.013L265.174 615.261C263.892 621.986 263.194 628.916 263.194 636.011C263.194 697.051 312.857 
746.711 373.896 746.711C434.936 746.711 484.599 697.054 484.599 636.011Z" fill="white"/>
</svg>
